<svg width="16" height="15" viewBox="0 0 16 15" fill="none" xmlns="http://www.w3.org/2000/svg">
<path d="M9.21126 1.62468C8.81207 0.47626 7.18793 0.476255 6.78874 1.62468L5.84575 4.33755C5.74719 4.62107 5.4826 4.81331 5.1825 4.81942L2.31101 4.87794C1.09544 4.90271 0.59355 6.44736 1.56241 7.1819L3.8511 8.91706C4.09029 9.0984 4.19136 9.40944 4.10444 9.69674L3.27275 12.4458C2.92068 13.6095 4.23463 14.5642 5.23261 13.8697L7.59009 12.2292C7.83647 12.0578 8.16353 12.0578 8.40991 12.2292L10.7674 13.8697C11.7654 14.5642 13.0793 13.6095 12.7273 12.4458L11.8956 9.69675C11.8086 9.40944 11.9097 9.0984 12.1489 8.91706L14.4376 7.1819C15.4064 6.44736 14.9046 4.90271 13.689 4.87794L10.8175 4.81942C10.5174 4.81331 10.2528 4.62107 10.1543 4.33755L9.21126 1.62468Z" stroke="#F43054" stroke-width="0.564706"/>
</svg>
