<svg width="14" height="13" viewBox="0 0 14 13" fill="none" xmlns="http://www.w3.org/2000/svg">
<path d="M6.05544 0.717386C6.36673 -0.178174 7.63327 -0.178173 7.94456 0.717388L8.88756 3.43025C9.02488 3.82532 9.39357 4.09319 9.81174 4.10172L12.6832 4.16023C13.6312 4.17955 14.0225 5.3841 13.267 5.9569L10.9783 7.69206C10.645 7.94475 10.5042 8.37817 10.6253 8.77851L11.457 11.5275C11.7315 12.435 10.7069 13.1795 9.92866 12.6379L7.57118 10.9975C7.22786 10.7586 6.77214 10.7586 6.42882 10.9975L4.07134 12.6379C3.2931 13.1795 2.26845 12.435 2.54301 11.5275L3.37469 8.77851C3.49581 8.37817 3.35498 7.94475 3.02168 7.69206L0.732993 5.9569C-0.0225393 5.38409 0.368843 4.17955 1.31677 4.16023L4.18826 4.10172C4.60643 4.09319 4.97512 3.82532 5.11245 3.43025L6.05544 0.717386Z" fill="#F43054"/>
</svg>
