<svg width="20" height="20" viewBox="0 0 20 20" fill="none" xmlns="http://www.w3.org/2000/svg">
<path d="M6.67187 9.70003C7.44364 11.2938 8.73239 12.5792 10.3281 13.3469C10.4458 13.4026 10.576 13.4268 10.7059 13.4169C10.8358 13.407 10.9608 13.3635 11.0687 13.2907L13.4125 11.725C13.516 11.6548 13.6357 11.6119 13.7603 11.6005C13.8849 11.589 14.0104 11.6093 14.125 11.6594L18.5125 13.5438C18.6625 13.6062 18.7877 13.7162 18.869 13.8568C18.9504 13.9974 18.9832 14.1608 18.9625 14.3219C18.8234 15.4073 18.2937 16.4048 17.4723 17.1278C16.6509 17.8508 15.5943 18.2498 14.5 18.25C11.1185 18.25 7.87548 16.9067 5.48439 14.5156C3.0933 12.1246 1.75 8.88154 1.75 5.50003C1.75025 4.40578 2.1492 3.34911 2.87221 2.52774C3.59522 1.70637 4.59274 1.17659 5.67812 1.03753C5.83922 1.01684 6.00266 1.04967 6.14326 1.13099C6.28386 1.2123 6.39384 1.33758 6.45625 1.48753L8.34062 5.88441C8.38963 5.99723 8.41013 6.12038 8.40032 6.24299C8.39051 6.36561 8.35069 6.48393 8.28437 6.58753L6.71875 8.96878C6.64905 9.07648 6.60814 9.20027 6.59993 9.32829C6.59172 9.45632 6.61649 9.58431 6.67187 9.70003V9.70003Z" stroke="white" stroke-width="2" stroke-linecap="round" stroke-linejoin="round"/>
</svg>
